<svg width="86" height="20" viewBox="0 0 86 20" fill="none" xmlns="http://www.w3.org/2000/svg">
<path d="M4.12939 0.717285H13.471C17.3611 0.717285 19.3254 2.68937 18.6263 5.97733C18.1719 8.11433 16.8088 9.75745 14.7989 10.5794C16.3811 11.1274 16.6439 12.4699 16.2909 14.387C15.8683 16.6331 15.5934 18.4412 15.9147 19.8936H12.1612C11.8348 18.8526 12.0882 17.401 12.686 14.3329C13.0141 12.6615 12.4472 11.9769 10.8307 11.9769H5.37912L3.69649 19.8936H0.0538025L4.13025 0.717285H4.12939ZM7.16139 3.59382L5.97951 9.15448H11.4036C13.2116 9.15448 14.5722 8.16844 14.9561 6.36041C15.34 4.55238 14.3935 3.59382 12.5855 3.59382H7.16139Z" fill="#FB0000"/>
<path d="M17.861 12.1143C17.861 7.22791 20.8595 4.17358 25.1635 4.17358C29.2451 4.17358 32.2995 7.06128 32.2995 12.1702V12.4476H21.3602C21.471 15.696 22.9149 17.4457 25.1644 17.4457C26.9973 17.4457 28.2745 16.2792 28.7736 14.0031H32.1328C31.4663 17.7789 28.9119 20.0001 25.136 20.0001C20.8045 20.0001 17.8618 17.0291 17.8618 12.1152L17.861 12.1143ZM21.4985 10.3372H28.7452C28.2728 7.97689 26.9681 6.72802 25.136 6.72802C23.304 6.72802 21.9434 8.00524 21.4985 10.3372Z" fill="#FB0000"/>
<path d="M32.0469 11.9115C33.0682 7.10844 36.3544 4.05411 40.2419 4.05411C42.2965 4.05411 43.7833 5.02555 44.4945 6.77518L45.7047 1.0831L45.9349 0H49.4891L45.3577 19.4357H41.8034L42.3111 17.0479C40.8561 18.7975 38.9621 19.7415 36.9076 19.7415C32.9926 19.7415 31.0145 16.7705 32.0469 11.9115ZM43.4028 11.9115C44.1406 8.44063 42.975 6.60855 40.5872 6.60855C38.1994 6.60855 36.3381 8.44063 35.6063 11.8841C34.8685 15.355 35.9782 17.187 38.3386 17.187C40.6989 17.187 42.671 15.3541 43.4028 11.9115Z" fill="#FB0000"/>
<path d="M46.0731 9.96343C47.4165 3.64434 51.724 0.202637 56.887 0.202637C62.05 0.202637 64.8681 3.64434 63.5247 9.96343C62.1814 16.2825 57.8739 19.7242 52.7375 19.7242C47.6012 19.7242 44.7298 16.2825 46.0731 9.96343ZM59.8674 9.96343C60.8277 5.44636 59.3143 3.08003 56.2754 3.08003C53.2366 3.08003 50.6899 5.44636 49.7304 9.96343C48.7702 14.4805 50.3111 16.8477 53.3491 16.8477C56.3871 16.8477 58.9072 14.4814 59.8674 9.96343Z" fill="#FB0000"/>
<path d="M82.3918 0.202637H85.9461L81.7288 19.6383H78.1745L82.3918 0.202637Z" fill="#FB0000"/>
<path d="M76.9248 4.92261L75.8142 10.753L74.6761 16.5559L73.2598 10.753L71.8718 4.92261H68.5125L67.152 10.753L65.764 16.5559L64.6259 10.753L64.5099 10.1612C64.5099 10.1612 64.5082 10.168 64.5074 10.1723C64.0968 12.1023 63.4122 13.815 62.4992 15.2709L63.5703 19.9993H67.5686L68.8733 14.5013L70.1505 8.97586L71.4277 14.5013L72.7324 19.9993H76.7307L80.1458 4.92261H76.9248Z" fill="#FB0000"/>
</svg>
